<svg width="472" height="169" viewBox="0 0 472 169" fill="none" xmlns="http://www.w3.org/2000/svg">
<g filter="url(#filter0_d_14_3555)">
<mask id="path-1-inside-1_14_3555" fill="white">
<path fill-rule="evenodd" clip-rule="evenodd" d="M1 99.8543V73.1552H6.70481C16.9012 50.4897 39.6806 34.7085 66.1459 34.7085H405.854C432.319 34.7085 455.099 50.4897 465.295 73.1552H471V99.8543V100.922H470.991C470.421 136.409 441.477 165 405.854 165H66.1459C30.5235 165 1.57894 136.409 1.00858 100.922H1V99.8543Z"/>
</mask>
<path fill-rule="evenodd" clip-rule="evenodd" d="M1 99.8543V73.1552H6.70481C16.9012 50.4897 39.6806 34.7085 66.1459 34.7085H405.854C432.319 34.7085 455.099 50.4897 465.295 73.1552H471V99.8543V100.922H470.991C470.421 136.409 441.477 165 405.854 165H66.1459C30.5235 165 1.57894 136.409 1.00858 100.922H1V99.8543Z" fill="url(#paint0_linear_14_3555)"/>
<path d="M1 73.1552V72.1552H0V73.1552H1ZM6.70481 73.1552V74.1552H7.35147L7.61678 73.5655L6.70481 73.1552ZM465.295 73.1552L464.383 73.5655L464.649 74.1552H465.295V73.1552ZM471 73.1552H472V72.1552H471V73.1552ZM471 100.922V101.922H472V100.922H471ZM470.991 100.922V99.9223H470.007L469.992 100.906L470.991 100.922ZM1.00858 100.922L2.00845 100.906L1.99263 99.9223H1.00858V100.922ZM1 100.922H0V101.922H1V100.922ZM2 99.8543V73.1552H0V99.8543H2ZM1 74.1552H6.70481V72.1552H1V74.1552ZM7.61678 73.5655C17.6577 51.2457 40.0884 35.7085 66.1459 35.7085V33.7085C39.2728 33.7085 16.1448 49.7337 5.79284 72.745L7.61678 73.5655ZM66.1459 35.7085H405.854V33.7085H66.1459V35.7085ZM405.854 35.7085C431.912 35.7085 454.342 51.2457 464.383 73.5655L466.207 72.745C455.855 49.7337 432.727 33.7085 405.854 33.7085V35.7085ZM465.295 74.1552H471V72.1552H465.295V74.1552ZM470 73.1552V99.8543H472V73.1552H470ZM470 99.8543V100.922H472V99.8543H470ZM471 99.9223H470.991V101.922H471V99.9223ZM469.992 100.906C469.43 135.848 440.93 164 405.854 164V166C442.023 166 471.412 136.97 471.991 100.938L469.992 100.906ZM405.854 164H66.1459V166H405.854V164ZM66.1459 164C31.0704 164 2.57005 135.848 2.00845 100.906L0.00870612 100.938C0.58783 136.97 29.9766 166 66.1459 166V164ZM1.00858 99.9223H1V101.922H1.00858V99.9223ZM2 100.922V99.8543H0V100.922H2Z" fill="#3295F0" mask="url(#path-1-inside-1_14_3555)"/>
<rect x="1" y="10.4167" width="470" height="134.708" rx="67.3542" fill="url(#paint1_linear_14_3555)"/>
<rect x="1" y="10.4167" width="470" height="134.708" rx="67.3542" fill="url(#paint2_linear_14_3555)"/>
<mask id="mask0_14_3555" style="mask-type:alpha" maskUnits="userSpaceOnUse" x="1" y="10" width="470" height="136">
<rect x="1" y="10.4167" width="470" height="134.708" rx="67.3542" fill="#74BE39"/>
</mask>
<g mask="url(#mask0_14_3555)">
<ellipse cx="233.418" cy="-10.5623" rx="325.385" ry="100.479" fill="#409FFC"/>
</g>
<rect x="2" y="11.4167" width="468" height="132.708" rx="66.3542" stroke="url(#paint3_linear_14_3555)" stroke-width="2"/>
<rect x="2" y="11.4167" width="468" height="132.708" rx="66.3542" stroke="url(#paint4_linear_14_3555)" stroke-width="2"/>
<g filter="url(#filter1_d_14_3555)">
<mask id="path-9-outside-2_14_3555" maskUnits="userSpaceOnUse" x="48" y="54" width="378" height="48" fill="black">
<rect fill="white" x="48" y="54" width="378" height="48"/>
<path d="M49.7 62.146H81.722V71.65H62.228V76.294H79.94V85.798H62.228V90.496H82.208V100H49.7V62.146ZM88.6572 70.462H102.589L105.991 77.374L109.987 70.462H123.271L114.091 84.826L123.919 100H109.933L105.991 92.332L101.401 100H88.0632L97.8372 84.88L88.6572 70.462ZM130.685 70.462H142.835V100H130.685V70.462ZM136.625 55.882C138.425 55.882 139.901 56.458 141.053 57.61C142.205 58.762 142.781 60.238 142.781 62.038C142.781 63.838 142.205 65.314 141.053 66.466C139.901 67.618 138.425 68.194 136.625 68.194C134.825 68.194 133.349 67.618 132.197 66.466C131.045 65.314 130.469 63.838 130.469 62.038C130.469 60.238 131.045 58.762 132.197 57.61C133.349 56.458 134.825 55.882 136.625 55.882ZM173.883 98.704C172.911 99.28 171.633 99.73 170.049 100.054C168.501 100.378 166.917 100.54 165.297 100.54C161.985 100.54 159.321 99.64 157.305 97.84C155.325 96.004 154.335 93.556 154.335 90.496V79.75H150.285V72.082H154.335V63.82H166.431V72.082H173.343V79.75H166.431V88.66C166.431 89.452 166.647 90.082 167.079 90.55C167.511 90.982 168.087 91.18 168.807 91.144C169.491 91.144 170.499 90.892 171.831 90.388L173.883 98.704ZM196.302 62.146H209.586L218.982 81.91L228.324 62.146H241.608V100H230.646V79.264L223.032 96.328H214.878L207.264 79.264V100H196.302V62.146ZM265.878 70.03C269.226 70.03 272.16 70.66 274.68 71.92C277.2 73.144 279.144 74.908 280.512 77.212C281.88 79.48 282.564 82.144 282.564 85.204C282.564 88.264 281.88 90.946 280.512 93.25C279.144 95.518 277.2 97.282 274.68 98.542C272.16 99.802 269.226 100.432 265.878 100.432C262.53 100.432 259.596 99.802 257.076 98.542C254.556 97.282 252.612 95.518 251.244 93.25C249.876 90.946 249.192 88.264 249.192 85.204C249.192 82.144 249.876 79.48 251.244 77.212C252.612 74.908 254.556 73.144 257.076 71.92C259.596 70.66 262.53 70.03 265.878 70.03ZM265.878 79.642C264.546 79.642 263.466 80.164 262.638 81.208C261.846 82.252 261.45 83.638 261.45 85.366C261.45 87.094 261.846 88.48 262.638 89.524C263.466 90.568 264.546 91.09 265.878 91.09C267.21 91.09 268.272 90.568 269.064 89.524C269.892 88.48 270.306 87.094 270.306 85.366C270.306 83.638 269.892 82.252 269.064 81.208C268.272 80.164 267.21 79.642 265.878 79.642ZM321.468 59.932V100H309.318V97.03C307.374 99.298 304.872 100.432 301.812 100.432C299.112 100.432 296.736 99.802 294.684 98.542C292.632 97.282 291.048 95.5 289.932 93.196C288.816 90.856 288.258 88.138 288.258 85.042C288.258 82.018 288.798 79.372 289.878 77.104C290.958 74.836 292.488 73.09 294.468 71.866C296.484 70.642 298.824 70.03 301.488 70.03C303.072 70.03 304.53 70.336 305.862 70.948C307.194 71.524 308.346 72.37 309.318 73.486V59.932H321.468ZM304.944 91.09C306.276 91.09 307.338 90.568 308.13 89.524C308.922 88.48 309.318 87.094 309.318 85.366C309.318 83.638 308.922 82.252 308.13 81.208C307.338 80.164 306.276 79.642 304.944 79.642C303.612 79.642 302.532 80.164 301.704 81.208C300.912 82.252 300.516 83.638 300.516 85.366C300.516 87.094 300.912 88.48 301.704 89.524C302.532 90.568 303.612 91.09 304.944 91.09ZM362.099 70.462V100H349.949V95.896C348.977 97.408 347.753 98.56 346.277 99.352C344.801 100.144 343.127 100.54 341.255 100.54C339.239 100.54 337.457 100.072 335.909 99.136C334.361 98.2 333.137 96.886 332.237 95.194C331.373 93.502 330.941 91.54 330.941 89.308V70.462H343.091V85.798C343.091 87.022 343.379 88.012 343.955 88.768C344.567 89.488 345.359 89.848 346.331 89.848C347.447 89.848 348.329 89.416 348.977 88.552C349.625 87.688 349.949 86.536 349.949 85.096V70.462H362.099ZM372.352 59.932H384.502V100H372.352V59.932ZM408.355 70.03C411.595 70.03 414.403 70.696 416.779 72.028C419.155 73.36 420.973 75.268 422.233 77.752C423.493 80.2 424.123 83.08 424.123 86.392C424.123 87.076 424.105 87.598 424.069 87.958H404.845C405.241 89.11 405.853 89.992 406.681 90.604C407.545 91.18 408.571 91.468 409.759 91.468C411.883 91.468 413.881 90.586 415.753 88.822L422.071 95.032C420.487 96.796 418.561 98.146 416.293 99.082C414.061 99.982 411.523 100.432 408.679 100.432C405.367 100.432 402.487 99.82 400.039 98.596C397.627 97.336 395.773 95.572 394.477 93.304C393.217 91.036 392.587 88.39 392.587 85.366C392.587 82.27 393.235 79.57 394.531 77.266C395.827 74.962 397.663 73.18 400.039 71.92C402.451 70.66 405.223 70.03 408.355 70.03ZM411.919 82.342C411.991 81.118 411.685 80.11 411.001 79.318C410.353 78.526 409.507 78.13 408.463 78.13C407.455 78.13 406.609 78.508 405.925 79.264C405.277 80.02 404.827 81.046 404.575 82.342H411.919Z"/>
</mask>
<path d="M49.7 62.146H81.722V71.65H62.228V76.294H79.94V85.798H62.228V90.496H82.208V100H49.7V62.146ZM88.6572 70.462H102.589L105.991 77.374L109.987 70.462H123.271L114.091 84.826L123.919 100H109.933L105.991 92.332L101.401 100H88.0632L97.8372 84.88L88.6572 70.462ZM130.685 70.462H142.835V100H130.685V70.462ZM136.625 55.882C138.425 55.882 139.901 56.458 141.053 57.61C142.205 58.762 142.781 60.238 142.781 62.038C142.781 63.838 142.205 65.314 141.053 66.466C139.901 67.618 138.425 68.194 136.625 68.194C134.825 68.194 133.349 67.618 132.197 66.466C131.045 65.314 130.469 63.838 130.469 62.038C130.469 60.238 131.045 58.762 132.197 57.61C133.349 56.458 134.825 55.882 136.625 55.882ZM173.883 98.704C172.911 99.28 171.633 99.73 170.049 100.054C168.501 100.378 166.917 100.54 165.297 100.54C161.985 100.54 159.321 99.64 157.305 97.84C155.325 96.004 154.335 93.556 154.335 90.496V79.75H150.285V72.082H154.335V63.82H166.431V72.082H173.343V79.75H166.431V88.66C166.431 89.452 166.647 90.082 167.079 90.55C167.511 90.982 168.087 91.18 168.807 91.144C169.491 91.144 170.499 90.892 171.831 90.388L173.883 98.704ZM196.302 62.146H209.586L218.982 81.91L228.324 62.146H241.608V100H230.646V79.264L223.032 96.328H214.878L207.264 79.264V100H196.302V62.146ZM265.878 70.03C269.226 70.03 272.16 70.66 274.68 71.92C277.2 73.144 279.144 74.908 280.512 77.212C281.88 79.48 282.564 82.144 282.564 85.204C282.564 88.264 281.88 90.946 280.512 93.25C279.144 95.518 277.2 97.282 274.68 98.542C272.16 99.802 269.226 100.432 265.878 100.432C262.53 100.432 259.596 99.802 257.076 98.542C254.556 97.282 252.612 95.518 251.244 93.25C249.876 90.946 249.192 88.264 249.192 85.204C249.192 82.144 249.876 79.48 251.244 77.212C252.612 74.908 254.556 73.144 257.076 71.92C259.596 70.66 262.53 70.03 265.878 70.03ZM265.878 79.642C264.546 79.642 263.466 80.164 262.638 81.208C261.846 82.252 261.45 83.638 261.45 85.366C261.45 87.094 261.846 88.48 262.638 89.524C263.466 90.568 264.546 91.09 265.878 91.09C267.21 91.09 268.272 90.568 269.064 89.524C269.892 88.48 270.306 87.094 270.306 85.366C270.306 83.638 269.892 82.252 269.064 81.208C268.272 80.164 267.21 79.642 265.878 79.642ZM321.468 59.932V100H309.318V97.03C307.374 99.298 304.872 100.432 301.812 100.432C299.112 100.432 296.736 99.802 294.684 98.542C292.632 97.282 291.048 95.5 289.932 93.196C288.816 90.856 288.258 88.138 288.258 85.042C288.258 82.018 288.798 79.372 289.878 77.104C290.958 74.836 292.488 73.09 294.468 71.866C296.484 70.642 298.824 70.03 301.488 70.03C303.072 70.03 304.53 70.336 305.862 70.948C307.194 71.524 308.346 72.37 309.318 73.486V59.932H321.468ZM304.944 91.09C306.276 91.09 307.338 90.568 308.13 89.524C308.922 88.48 309.318 87.094 309.318 85.366C309.318 83.638 308.922 82.252 308.13 81.208C307.338 80.164 306.276 79.642 304.944 79.642C303.612 79.642 302.532 80.164 301.704 81.208C300.912 82.252 300.516 83.638 300.516 85.366C300.516 87.094 300.912 88.48 301.704 89.524C302.532 90.568 303.612 91.09 304.944 91.09ZM362.099 70.462V100H349.949V95.896C348.977 97.408 347.753 98.56 346.277 99.352C344.801 100.144 343.127 100.54 341.255 100.54C339.239 100.54 337.457 100.072 335.909 99.136C334.361 98.2 333.137 96.886 332.237 95.194C331.373 93.502 330.941 91.54 330.941 89.308V70.462H343.091V85.798C343.091 87.022 343.379 88.012 343.955 88.768C344.567 89.488 345.359 89.848 346.331 89.848C347.447 89.848 348.329 89.416 348.977 88.552C349.625 87.688 349.949 86.536 349.949 85.096V70.462H362.099ZM372.352 59.932H384.502V100H372.352V59.932ZM408.355 70.03C411.595 70.03 414.403 70.696 416.779 72.028C419.155 73.36 420.973 75.268 422.233 77.752C423.493 80.2 424.123 83.08 424.123 86.392C424.123 87.076 424.105 87.598 424.069 87.958H404.845C405.241 89.11 405.853 89.992 406.681 90.604C407.545 91.18 408.571 91.468 409.759 91.468C411.883 91.468 413.881 90.586 415.753 88.822L422.071 95.032C420.487 96.796 418.561 98.146 416.293 99.082C414.061 99.982 411.523 100.432 408.679 100.432C405.367 100.432 402.487 99.82 400.039 98.596C397.627 97.336 395.773 95.572 394.477 93.304C393.217 91.036 392.587 88.39 392.587 85.366C392.587 82.27 393.235 79.57 394.531 77.266C395.827 74.962 397.663 73.18 400.039 71.92C402.451 70.66 405.223 70.03 408.355 70.03ZM411.919 82.342C411.991 81.118 411.685 80.11 411.001 79.318C410.353 78.526 409.507 78.13 408.463 78.13C407.455 78.13 406.609 78.508 405.925 79.264C405.277 80.02 404.827 81.046 404.575 82.342H411.919Z" fill="white"/>
<path d="M49.7 62.146V61.146C49.1477 61.146 48.7 61.5937 48.7 62.146H49.7ZM81.722 62.146H82.722C82.722 61.5937 82.2743 61.146 81.722 61.146V62.146ZM81.722 71.65V72.65C82.2743 72.65 82.722 72.2023 82.722 71.65H81.722ZM62.228 71.65V70.65C61.6757 70.65 61.228 71.0977 61.228 71.65H62.228ZM62.228 76.294H61.228C61.228 76.8463 61.6757 77.294 62.228 77.294V76.294ZM79.94 76.294H80.94C80.94 75.7417 80.4923 75.294 79.94 75.294V76.294ZM79.94 85.798V86.798C80.4923 86.798 80.94 86.3503 80.94 85.798H79.94ZM62.228 85.798V84.798C61.6757 84.798 61.228 85.2457 61.228 85.798H62.228ZM62.228 90.496H61.228C61.228 91.0483 61.6757 91.496 62.228 91.496V90.496ZM82.208 90.496H83.208C83.208 89.9437 82.7603 89.496 82.208 89.496V90.496ZM82.208 100V101C82.7603 101 83.208 100.552 83.208 100H82.208ZM49.7 100H48.7C48.7 100.552 49.1477 101 49.7 101V100ZM49.7 63.146H81.722V61.146H49.7V63.146ZM80.722 62.146V71.65H82.722V62.146H80.722ZM81.722 70.65H62.228V72.65H81.722V70.65ZM61.228 71.65V76.294H63.228V71.65H61.228ZM62.228 77.294H79.94V75.294H62.228V77.294ZM78.94 76.294V85.798H80.94V76.294H78.94ZM79.94 84.798H62.228V86.798H79.94V84.798ZM61.228 85.798V90.496H63.228V85.798H61.228ZM62.228 91.496H82.208V89.496H62.228V91.496ZM81.208 90.496V100H83.208V90.496H81.208ZM82.208 99H49.7V101H82.208V99ZM50.7 100V62.146H48.7V100H50.7ZM88.6572 70.462V69.462C88.2922 69.462 87.9562 69.6609 87.7805 69.9809C87.6049 70.3009 87.6176 70.6912 87.8137 70.9991L88.6572 70.462ZM102.589 70.462L103.486 70.0204C103.318 69.6785 102.97 69.462 102.589 69.462V70.462ZM105.991 77.374L105.094 77.8156C105.257 78.1467 105.589 78.3611 105.958 78.3734C106.327 78.3858 106.672 78.194 106.857 77.8745L105.991 77.374ZM109.987 70.462V69.462C109.63 69.462 109.3 69.6524 109.121 69.9615L109.987 70.462ZM123.271 70.462L124.114 71.0005C124.311 70.6927 124.324 70.3021 124.148 69.9816C123.973 69.6612 123.637 69.462 123.271 69.462V70.462ZM114.091 84.826L113.249 84.2875C113.038 84.6177 113.039 85.0407 113.252 85.3696L114.091 84.826ZM123.919 100V101C124.286 101 124.623 100.8 124.798 100.478C124.973 100.156 124.958 99.7639 124.759 99.4564L123.919 100ZM109.933 100L109.044 100.457C109.215 100.79 109.558 101 109.933 101V100ZM105.991 92.332L106.881 91.8748C106.715 91.5518 106.386 91.3442 106.023 91.3325C105.66 91.3208 105.32 91.5068 105.133 91.8184L105.991 92.332ZM101.401 100V101C101.753 101 102.079 100.815 102.259 100.514L101.401 100ZM88.0632 100L87.2234 99.4571C87.0246 99.7647 87.0098 100.156 87.1849 100.478C87.36 100.8 87.6969 101 88.0632 101V100ZM97.8372 84.88L98.677 85.4229C98.8892 85.0946 98.8907 84.6727 98.6807 84.3429L97.8372 84.88ZM88.6572 71.462H102.589V69.462H88.6572V71.462ZM101.692 70.9036L105.094 77.8156L106.888 76.9324L103.486 70.0204L101.692 70.9036ZM106.857 77.8745L110.853 70.9625L109.121 69.9615L105.125 76.8735L106.857 77.8745ZM109.987 71.462H123.271V69.462H109.987V71.462ZM122.429 69.9235L113.249 84.2875L114.934 85.3645L124.114 71.0005L122.429 69.9235ZM113.252 85.3696L123.08 100.544L124.759 99.4564L114.931 84.2824L113.252 85.3696ZM123.919 99H109.933V101H123.919V99ZM110.823 99.5428L106.881 91.8748L105.102 92.7892L109.044 100.457L110.823 99.5428ZM105.133 91.8184L100.543 99.4864L102.259 100.514L106.849 92.8456L105.133 91.8184ZM101.401 99H88.0632V101H101.401V99ZM88.903 100.543L98.677 85.4229L96.9974 84.3371L87.2234 99.4571L88.903 100.543ZM98.6807 84.3429L89.5007 69.9249L87.8137 70.9991L96.9937 85.4171L98.6807 84.3429ZM130.685 70.462V69.462C130.133 69.462 129.685 69.9097 129.685 70.462H130.685ZM142.835 70.462H143.835C143.835 69.9097 143.388 69.462 142.835 69.462V70.462ZM142.835 100V101C143.388 101 143.835 100.552 143.835 100H142.835ZM130.685 100H129.685C129.685 100.552 130.133 101 130.685 101V100ZM132.197 66.466L132.904 65.7589L132.904 65.7589L132.197 66.466ZM132.197 57.61L132.904 58.3171L132.904 58.3171L132.197 57.61ZM130.685 71.462H142.835V69.462H130.685V71.462ZM141.835 70.462V100H143.835V70.462H141.835ZM142.835 99H130.685V101H142.835V99ZM131.685 100V70.462H129.685V100H131.685ZM136.625 56.882C138.191 56.882 139.402 57.3732 140.346 58.3171L141.76 56.9029C140.4 55.5428 138.66 54.882 136.625 54.882V56.882ZM140.346 58.3171C141.29 59.261 141.781 60.4727 141.781 62.038H143.781C143.781 60.0033 143.12 58.263 141.76 56.9029L140.346 58.3171ZM141.781 62.038C141.781 63.6033 141.29 64.815 140.346 65.7589L141.76 67.1731C143.12 65.813 143.781 64.0727 143.781 62.038H141.781ZM140.346 65.7589C139.402 66.7028 138.191 67.194 136.625 67.194V69.194C138.66 69.194 140.4 68.5332 141.76 67.1731L140.346 65.7589ZM136.625 67.194C135.06 67.194 133.848 66.7028 132.904 65.7589L131.49 67.1731C132.85 68.5332 134.591 69.194 136.625 69.194V67.194ZM132.904 65.7589C131.96 64.815 131.469 63.6033 131.469 62.038H129.469C129.469 64.0727 130.13 65.813 131.49 67.1731L132.904 65.7589ZM131.469 62.038C131.469 60.4727 131.96 59.261 132.904 58.3171L131.49 56.9029C130.13 58.263 129.469 60.0033 129.469 62.038H131.469ZM132.904 58.3171C133.848 57.3732 135.06 56.882 136.625 56.882V54.882C134.591 54.882 132.85 55.5428 131.49 56.9029L132.904 58.3171ZM173.883 98.704L174.393 99.5643C174.772 99.3395 174.96 98.8926 174.854 98.4644L173.883 98.704ZM170.049 100.054L169.849 99.0743L169.844 99.0752L170.049 100.054ZM157.305 97.84L156.625 98.5733C156.63 98.5775 156.634 98.5818 156.639 98.5859L157.305 97.84ZM154.335 79.75H155.335C155.335 79.1977 154.887 78.75 154.335 78.75V79.75ZM150.285 79.75H149.285C149.285 80.3023 149.733 80.75 150.285 80.75V79.75ZM150.285 72.082V71.082C149.733 71.082 149.285 71.5297 149.285 72.082H150.285ZM154.335 72.082V73.082C154.887 73.082 155.335 72.6343 155.335 72.082H154.335ZM154.335 63.82V62.82C153.783 62.82 153.335 63.2677 153.335 63.82H154.335ZM166.431 63.82H167.431C167.431 63.2677 166.983 62.82 166.431 62.82V63.82ZM166.431 72.082H165.431C165.431 72.6343 165.879 73.082 166.431 73.082V72.082ZM173.343 72.082H174.343C174.343 71.5297 173.895 71.082 173.343 71.082V72.082ZM173.343 79.75V80.75C173.895 80.75 174.343 80.3023 174.343 79.75H173.343ZM166.431 79.75V78.75C165.879 78.75 165.431 79.1977 165.431 79.75H166.431ZM167.079 90.55L166.344 91.2283C166.353 91.2381 166.363 91.2477 166.372 91.2571L167.079 90.55ZM168.807 91.144V90.144C168.79 90.144 168.774 90.1444 168.757 90.1452L168.807 91.144ZM171.831 90.388L172.802 90.1484C172.733 89.8707 172.549 89.6357 172.296 89.5027C172.043 89.3697 171.745 89.3515 171.477 89.4527L171.831 90.388ZM173.373 97.8437C172.529 98.3442 171.367 98.7638 169.849 99.0743L170.25 101.034C171.9 100.696 173.294 100.216 174.393 99.5643L173.373 97.8437ZM169.844 99.0752C168.365 99.3848 166.85 99.54 165.297 99.54V101.54C166.984 101.54 168.637 101.371 170.254 101.033L169.844 99.0752ZM165.297 99.54C162.173 99.54 159.765 98.6956 157.971 97.0941L156.639 98.5859C158.877 100.584 161.797 101.54 165.297 101.54V99.54ZM157.985 97.1067C156.237 95.4861 155.335 93.3186 155.335 90.496H153.335C153.335 93.7934 154.413 96.5219 156.625 98.5733L157.985 97.1067ZM155.335 90.496V79.75H153.335V90.496H155.335ZM154.335 78.75H150.285V80.75H154.335V78.75ZM151.285 79.75V72.082H149.285V79.75H151.285ZM150.285 73.082H154.335V71.082H150.285V73.082ZM155.335 72.082V63.82H153.335V72.082H155.335ZM154.335 64.82H166.431V62.82H154.335V64.82ZM165.431 63.82V72.082H167.431V63.82H165.431ZM166.431 73.082H173.343V71.082H166.431V73.082ZM172.343 72.082V79.75H174.343V72.082H172.343ZM173.343 78.75H166.431V80.75H173.343V78.75ZM165.431 79.75V88.66H167.431V79.75H165.431ZM165.431 88.66C165.431 89.6394 165.703 90.5334 166.344 91.2283L167.814 89.8717C167.591 89.6306 167.431 89.2646 167.431 88.66H165.431ZM166.372 91.2571C167.04 91.9251 167.91 92.1901 168.857 92.1428L168.757 90.1452C168.264 90.1699 167.982 90.0389 167.786 89.8429L166.372 91.2571ZM168.807 92.144C169.684 92.144 170.835 91.834 172.185 91.3233L171.477 89.4527C170.163 89.95 169.299 90.144 168.807 90.144V92.144ZM170.86 90.6276L172.912 98.9436L174.854 98.4644L172.802 90.1484L170.86 90.6276ZM196.302 62.146V61.146C195.749 61.146 195.302 61.5937 195.302 62.146H196.302ZM209.586 62.146L210.489 61.7166C210.323 61.3681 209.972 61.146 209.586 61.146V62.146ZM218.982 81.91L218.078 82.3394C218.244 82.6883 218.596 82.9104 218.983 82.91C219.369 82.9096 219.721 82.6866 219.886 82.3373L218.982 81.91ZM228.324 62.146V61.146C227.937 61.146 227.585 61.369 227.419 61.7187L228.324 62.146ZM241.608 62.146H242.608C242.608 61.5937 242.16 61.146 241.608 61.146V62.146ZM241.608 100V101C242.16 101 242.608 100.552 242.608 100H241.608ZM230.646 100H229.646C229.646 100.552 230.093 101 230.646 101V100ZM230.646 79.264H231.646C231.646 78.792 231.316 78.3843 230.854 78.2859C230.392 78.1876 229.925 78.4255 229.732 78.8565L230.646 79.264ZM223.032 96.328V97.328C223.426 97.328 223.784 97.0959 223.945 96.7355L223.032 96.328ZM214.878 96.328L213.964 96.7355C214.125 97.0959 214.483 97.328 214.878 97.328V96.328ZM207.264 79.264L208.177 78.8565C207.984 78.4255 207.517 78.1876 207.055 78.2859C206.594 78.3843 206.264 78.792 206.264 79.264H207.264ZM207.264 100V101C207.816 101 208.264 100.552 208.264 100H207.264ZM196.302 100H195.302C195.302 100.552 195.749 101 196.302 101V100ZM196.302 63.146H209.586V61.146H196.302V63.146ZM208.682 62.5754L218.078 82.3394L219.885 81.4806L210.489 61.7166L208.682 62.5754ZM219.886 82.3373L229.228 62.5733L227.419 61.7187L218.077 81.4827L219.886 82.3373ZM228.324 63.146H241.608V61.146H228.324V63.146ZM240.608 62.146V100H242.608V62.146H240.608ZM241.608 99H230.646V101H241.608V99ZM231.646 100V79.264H229.646V100H231.646ZM229.732 78.8565L222.118 95.9205L223.945 96.7355L231.559 79.6715L229.732 78.8565ZM223.032 95.328H214.878V97.328H223.032V95.328ZM215.791 95.9205L208.177 78.8565L206.35 79.6715L213.964 96.7355L215.791 95.9205ZM206.264 79.264V100H208.264V79.264H206.264ZM207.264 99H196.302V101H207.264V99ZM197.302 100V62.146H195.302V100H197.302ZM274.68 71.92L274.233 72.8145L274.243 72.8195L274.68 71.92ZM280.512 77.212L279.652 77.7225L279.656 77.7285L280.512 77.212ZM280.512 93.25L281.368 93.7665L281.372 93.7605L280.512 93.25ZM274.68 98.542L274.233 97.6476L274.233 97.6476L274.68 98.542ZM257.076 98.542L257.523 97.6476L257.523 97.6476L257.076 98.542ZM251.244 93.25L250.384 93.7606L250.388 93.7665L251.244 93.25ZM251.244 77.212L252.1 77.7285L252.104 77.7225L251.244 77.212ZM257.076 71.92L257.513 72.8196L257.523 72.8144L257.076 71.92ZM262.638 81.208L261.855 80.5866C261.85 80.5922 261.846 80.5979 261.841 80.6036L262.638 81.208ZM262.638 89.524L261.841 90.1284C261.846 90.1341 261.85 90.1398 261.855 90.1454L262.638 89.524ZM269.064 89.524L268.281 88.9026C268.276 88.9082 268.272 88.9139 268.267 88.9196L269.064 89.524ZM269.064 81.208L268.267 81.8124C268.272 81.8181 268.276 81.8238 268.281 81.8294L269.064 81.208ZM265.878 71.03C269.1 71.03 271.875 71.6358 274.233 72.8144L275.127 71.0256C272.445 69.6842 269.352 69.03 265.878 69.03V71.03ZM274.243 72.8195C276.596 73.9621 278.389 75.5947 279.652 77.7225L281.372 76.7015C279.899 74.2213 277.804 72.3259 275.117 71.0205L274.243 72.8195ZM279.656 77.7285C280.916 79.8177 281.564 82.2973 281.564 85.204H283.564C283.564 81.9907 282.844 79.1423 281.368 76.6955L279.656 77.7285ZM281.564 85.204C281.564 88.1103 280.916 90.6109 279.652 92.7395L281.372 93.7605C282.844 91.2811 283.564 88.4177 283.564 85.204H281.564ZM279.656 92.7335C278.392 94.8289 276.595 96.4666 274.233 97.6476L275.127 99.4364C277.805 98.0974 279.896 96.2071 281.368 93.7665L279.656 92.7335ZM274.233 97.6476C271.875 98.8262 269.1 99.432 265.878 99.432V101.432C269.352 101.432 272.445 100.778 275.127 99.4364L274.233 97.6476ZM265.878 99.432C262.656 99.432 259.881 98.8262 257.523 97.6476L256.629 99.4364C259.311 100.778 262.404 101.432 265.878 101.432V99.432ZM257.523 97.6476C255.161 96.4666 253.364 94.8289 252.1 92.7335L250.388 93.7665C251.86 96.2071 253.951 98.0974 256.629 99.4364L257.523 97.6476ZM252.104 92.7395C250.84 90.6109 250.192 88.1103 250.192 85.204H248.192C248.192 88.4177 248.912 91.2811 250.384 93.7605L252.104 92.7395ZM250.192 85.204C250.192 82.2973 250.84 79.8177 252.1 77.7285L250.388 76.6955C248.912 79.1423 248.192 81.9907 248.192 85.204H250.192ZM252.104 77.7225C253.367 75.5947 255.16 73.9621 257.513 72.8195L256.639 71.0205C253.952 72.3259 251.857 74.2213 250.384 76.7015L252.104 77.7225ZM257.523 72.8144C259.881 71.6358 262.656 71.03 265.878 71.03V69.03C262.404 69.03 259.311 69.6842 256.629 71.0256L257.523 72.8144ZM265.878 78.642C264.241 78.642 262.872 79.3035 261.855 80.5866L263.422 81.8294C264.06 81.0245 264.851 80.642 265.878 80.642V78.642ZM261.841 80.6036C260.881 81.8697 260.45 83.4892 260.45 85.366H262.45C262.45 83.7868 262.811 82.6343 263.435 81.8124L261.841 80.6036ZM260.45 85.366C260.45 87.2428 260.881 88.8623 261.841 90.1284L263.435 88.9196C262.811 88.0977 262.45 86.9452 262.45 85.366H260.45ZM261.855 90.1454C262.872 91.4285 264.241 92.09 265.878 92.09V90.09C264.851 90.09 264.06 89.7075 263.422 88.9026L261.855 90.1454ZM265.878 92.09C267.517 92.09 268.876 91.4264 269.861 90.1284L268.267 88.9196C267.668 89.7096 266.903 90.09 265.878 90.09V92.09ZM269.848 90.1454C270.853 88.8781 271.306 87.252 271.306 85.366H269.306C269.306 86.936 268.931 88.0819 268.281 88.9026L269.848 90.1454ZM271.306 85.366C271.306 83.48 270.853 81.8539 269.848 80.5866L268.281 81.8294C268.931 82.6501 269.306 83.796 269.306 85.366H271.306ZM269.861 80.6036C268.876 79.3056 267.517 78.642 265.878 78.642V80.642C266.903 80.642 267.668 81.0224 268.267 81.8124L269.861 80.6036ZM321.468 59.932H322.468C322.468 59.3797 322.02 58.932 321.468 58.932V59.932ZM321.468 100V101C322.02 101 322.468 100.552 322.468 100H321.468ZM309.318 100H308.318C308.318 100.552 308.765 101 309.318 101V100ZM309.318 97.03H310.318C310.318 96.6115 310.057 96.2373 309.665 96.0921C309.272 95.9469 308.831 96.0615 308.558 96.3792L309.318 97.03ZM294.684 98.542L294.16 99.3942L294.16 99.3942L294.684 98.542ZM289.932 93.196L289.029 93.6265L289.032 93.6319L289.932 93.196ZM294.468 71.866L293.949 71.0112L293.942 71.0154L294.468 71.866ZM305.862 70.948L305.444 71.8567C305.451 71.8598 305.458 71.8629 305.465 71.8659L305.862 70.948ZM309.318 73.486L308.564 74.1428C308.837 74.4573 309.278 74.5687 309.668 74.4225C310.059 74.2763 310.318 73.903 310.318 73.486H309.318ZM309.318 59.932V58.932C308.765 58.932 308.318 59.3797 308.318 59.932H309.318ZM308.13 89.524L307.333 88.9196L307.333 88.9196L308.13 89.524ZM308.13 81.208L307.333 81.8124L307.333 81.8124L308.13 81.208ZM301.704 81.208L300.92 80.5866C300.916 80.5922 300.911 80.5979 300.907 80.6036L301.704 81.208ZM301.704 89.524L300.907 90.1284C300.911 90.1341 300.916 90.1398 300.92 90.1454L301.704 89.524ZM320.468 59.932V100H322.468V59.932H320.468ZM321.468 99H309.318V101H321.468V99ZM310.318 100V97.03H308.318V100H310.318ZM308.558 96.3792C306.81 98.4194 304.588 99.432 301.812 99.432V101.432C305.155 101.432 307.938 100.177 310.077 97.6808L308.558 96.3792ZM301.812 99.432C299.273 99.432 297.083 98.8418 295.207 97.6898L294.16 99.3942C296.388 100.762 298.95 101.432 301.812 101.432V99.432ZM295.207 97.6898C293.328 96.5362 291.87 94.9036 290.832 92.7601L289.032 93.6319C290.225 96.0964 291.935 98.0278 294.16 99.3942L295.207 97.6898ZM290.834 92.7655C289.794 90.5836 289.258 88.0176 289.258 85.042H287.258C287.258 88.2584 287.838 91.1284 289.029 93.6265L290.834 92.7655ZM289.258 85.042C289.258 82.1369 289.776 79.643 290.781 77.5339L288.975 76.6741C287.819 79.101 287.258 81.8991 287.258 85.042H289.258ZM290.781 77.5339C291.785 75.4251 293.19 73.8315 294.993 72.7166L293.942 71.0154C291.785 72.3485 290.131 74.2469 288.975 76.6741L290.781 77.5339ZM294.987 72.7208C296.827 71.6036 298.982 71.03 301.488 71.03V69.03C298.665 69.03 296.141 69.6804 293.949 71.0112L294.987 72.7208ZM301.488 71.03C302.939 71.03 304.253 71.3096 305.444 71.8567L306.279 70.0393C304.806 69.3624 303.204 69.03 301.488 69.03V71.03ZM305.465 71.8659C306.657 72.3814 307.688 73.1371 308.564 74.1428L310.072 72.8292C309.004 71.6029 307.73 70.6666 306.259 70.0301L305.465 71.8659ZM310.318 73.486V59.932H308.318V73.486H310.318ZM309.318 60.932H321.468V58.932H309.318V60.932ZM304.944 92.09C306.582 92.09 307.942 91.4264 308.926 90.1284L307.333 88.9196C306.734 89.7096 305.969 90.09 304.944 90.09V92.09ZM308.926 90.1284C309.887 88.8623 310.318 87.2428 310.318 85.366H308.318C308.318 86.9452 307.956 88.0977 307.333 88.9196L308.926 90.1284ZM310.318 85.366C310.318 83.4892 309.887 81.8697 308.926 80.6036L307.333 81.8124C307.956 82.6343 308.318 83.7868 308.318 85.366H310.318ZM308.926 80.6036C307.942 79.3056 306.582 78.642 304.944 78.642V80.642C305.969 80.642 306.734 81.0224 307.333 81.8124L308.926 80.6036ZM304.944 78.642C303.306 78.642 301.938 79.3035 300.92 80.5866L302.487 81.8294C303.126 81.0245 303.917 80.642 304.944 80.642V78.642ZM300.907 80.6036C299.946 81.8697 299.516 83.4892 299.516 85.366H301.516C301.516 83.7868 301.877 82.6343 302.5 81.8124L300.907 80.6036ZM299.516 85.366C299.516 87.2428 299.946 88.8623 300.907 90.1284L302.5 88.9196C301.877 88.0977 301.516 86.9452 301.516 85.366H299.516ZM300.92 90.1454C301.938 91.4285 303.306 92.09 304.944 92.09V90.09C303.917 90.09 303.126 89.7075 302.487 88.9026L300.92 90.1454ZM362.099 70.462H363.099C363.099 69.9097 362.651 69.462 362.099 69.462V70.462ZM362.099 100V101C362.651 101 363.099 100.552 363.099 100H362.099ZM349.949 100H348.949C348.949 100.552 349.397 101 349.949 101V100ZM349.949 95.896H350.949C350.949 95.4522 350.656 95.0616 350.231 94.9365C349.805 94.8115 349.348 94.982 349.108 95.3552L349.949 95.896ZM346.277 99.352L345.804 98.4708L345.804 98.4708L346.277 99.352ZM335.909 99.136L335.391 99.9917L335.391 99.9917L335.909 99.136ZM332.237 95.194L331.346 95.6488C331.349 95.6537 331.351 95.6587 331.354 95.6636L332.237 95.194ZM330.941 70.462V69.462C330.389 69.462 329.941 69.9097 329.941 70.462H330.941ZM343.091 70.462H344.091C344.091 69.9097 343.643 69.462 343.091 69.462V70.462ZM343.955 88.768L343.159 89.374C343.17 89.3882 343.181 89.4021 343.193 89.4156L343.955 88.768ZM349.949 70.462V69.462C349.397 69.462 348.949 69.9097 348.949 70.462H349.949ZM361.099 70.462V100H363.099V70.462H361.099ZM362.099 99H349.949V101H362.099V99ZM350.949 100V95.896H348.949V100H350.949ZM349.108 95.3552C348.221 96.7351 347.119 97.765 345.804 98.4708L346.75 100.233C348.386 99.355 349.733 98.0809 350.79 96.4368L349.108 95.3552ZM345.804 98.4708C344.49 99.176 342.982 99.54 341.255 99.54V101.54C343.272 101.54 345.112 101.112 346.75 100.233L345.804 98.4708ZM341.255 99.54C339.4 99.54 337.801 99.1114 336.426 98.2803L335.391 99.9917C337.113 101.033 339.078 101.54 341.255 101.54V99.54ZM336.426 98.2803C335.042 97.4433 333.94 96.2669 333.12 94.7244L331.354 95.6636C332.333 97.5051 333.68 98.9567 335.391 99.9917L336.426 98.2803ZM333.127 94.7392C332.347 93.2107 331.941 91.4095 331.941 89.308H329.941C329.941 91.6705 330.399 93.7933 331.346 95.6488L333.127 94.7392ZM331.941 89.308V70.462H329.941V89.308H331.941ZM330.941 71.462H343.091V69.462H330.941V71.462ZM342.091 70.462V85.798H344.091V70.462H342.091ZM342.091 85.798C342.091 87.1775 342.417 88.3994 343.159 89.374L344.75 88.162C344.341 87.6246 344.091 86.8665 344.091 85.798H342.091ZM343.193 89.4156C344.001 90.3664 345.075 90.848 346.331 90.848V88.848C345.643 88.848 345.133 88.6096 344.717 88.1204L343.193 89.4156ZM346.331 90.848C347.749 90.848 348.933 90.2775 349.777 89.152L348.177 87.952C347.725 88.5545 347.144 88.848 346.331 88.848V90.848ZM349.777 89.152C350.592 88.0652 350.949 86.6807 350.949 85.096H348.949C348.949 86.3913 348.658 87.3108 348.177 87.952L349.777 89.152ZM350.949 85.096V70.462H348.949V85.096H350.949ZM349.949 71.462H362.099V69.462H349.949V71.462ZM372.352 59.932V58.932C371.8 58.932 371.352 59.3797 371.352 59.932H372.352ZM384.502 59.932H385.502C385.502 59.3797 385.054 58.932 384.502 58.932V59.932ZM384.502 100V101C385.054 101 385.502 100.552 385.502 100H384.502ZM372.352 100H371.352C371.352 100.552 371.8 101 372.352 101V100ZM372.352 60.932H384.502V58.932H372.352V60.932ZM383.502 59.932V100H385.502V59.932H383.502ZM384.502 99H372.352V101H384.502V99ZM373.352 100V59.932H371.352V100H373.352ZM416.779 72.028L416.29 72.9003L416.29 72.9003L416.779 72.028ZM422.233 77.752L421.342 78.2044L421.344 78.2096L422.233 77.752ZM424.069 87.958V88.958C424.583 88.958 425.013 88.5687 425.064 88.0575L424.069 87.958ZM404.845 87.958V86.958C404.522 86.958 404.219 87.1141 404.031 87.3771C403.844 87.6401 403.795 87.9775 403.9 88.2831L404.845 87.958ZM406.681 90.604L406.087 91.4082C406.1 91.4178 406.113 91.4271 406.127 91.436L406.681 90.604ZM415.753 88.822L416.454 88.1088C416.071 87.7321 415.459 87.7257 415.068 88.0942L415.753 88.822ZM422.071 95.032L422.815 95.7001C423.173 95.3022 423.154 94.6937 422.772 94.3188L422.071 95.032ZM416.293 99.082L416.667 100.009L416.675 100.006L416.293 99.082ZM400.039 98.596L399.576 99.4823C399.582 99.4851 399.587 99.4878 399.592 99.4904L400.039 98.596ZM394.477 93.304L393.603 93.7897L393.609 93.8001L394.477 93.304ZM394.531 77.266L393.66 76.7757L393.66 76.7757L394.531 77.266ZM400.039 71.92L399.576 71.0336L399.571 71.0365L400.039 71.92ZM411.919 82.342V83.342C412.449 83.342 412.887 82.9293 412.918 82.4007L411.919 82.342ZM411.001 79.318L410.227 79.9512C410.233 79.9581 410.239 79.9649 410.245 79.9716L411.001 79.318ZM405.925 79.264L405.184 78.5931C405.178 78.5997 405.172 78.6064 405.166 78.6132L405.925 79.264ZM404.575 82.342L403.594 82.1511C403.537 82.4443 403.614 82.7476 403.804 82.9781C403.994 83.2085 404.277 83.342 404.575 83.342V82.342ZM408.355 71.03C411.457 71.03 414.09 71.6666 416.29 72.9003L417.268 71.1557C414.717 69.7254 411.734 69.03 408.355 69.03V71.03ZM416.29 72.9003C418.489 74.133 420.169 75.8929 421.342 78.2044L423.125 77.2996C421.778 74.6431 419.821 72.587 417.268 71.1557L416.29 72.9003ZM421.344 78.2096C422.518 80.4901 423.123 83.2072 423.123 86.392H425.123C425.123 82.9528 424.469 79.9099 423.122 77.2944L421.344 78.2096ZM423.123 86.392C423.123 87.0664 423.105 87.5488 423.074 87.8585L425.064 88.0575C425.105 87.6472 425.123 87.0856 425.123 86.392H423.123ZM424.069 86.958H404.845V88.958H424.069V86.958ZM403.9 88.2831C404.349 89.5908 405.068 90.655 406.087 91.4082L407.276 89.7998C406.639 89.329 406.134 88.6292 405.791 87.6329L403.9 88.2831ZM406.127 91.436C407.178 92.1368 408.403 92.468 409.759 92.468V90.468C408.739 90.468 407.913 90.2232 407.236 89.7719L406.127 91.436ZM409.759 92.468C412.19 92.468 414.423 91.4496 416.439 89.5498L415.068 88.0942C413.34 89.7224 411.577 90.468 409.759 90.468V92.468ZM415.052 89.5352L421.37 95.7452L422.772 94.3188L416.454 88.1088L415.052 89.5352ZM421.327 94.3639C419.847 96.0124 418.046 97.2767 415.912 98.1576L416.675 100.006C419.076 99.0153 421.128 97.5796 422.815 95.7001L421.327 94.3639ZM415.919 98.1546C413.826 98.9988 411.418 99.432 408.679 99.432V101.432C411.629 101.432 414.297 100.965 416.667 100.009L415.919 98.1546ZM408.679 99.432C405.49 99.432 402.77 98.8431 400.487 97.7016L399.592 99.4904C402.205 100.797 405.244 101.432 408.679 101.432V99.432ZM400.502 97.7097C398.253 96.5344 396.543 94.9025 395.346 92.8079L393.609 93.8001C395.004 96.2415 397.002 98.1376 399.576 99.4823L400.502 97.7097ZM395.352 92.8184C394.187 90.7218 393.587 88.2484 393.587 85.366H391.587C391.587 88.5316 392.248 91.3502 393.603 93.7896L395.352 92.8184ZM393.587 85.366C393.587 82.4122 394.205 79.8868 395.403 77.7563L393.66 76.7757C392.266 79.2532 391.587 82.1278 391.587 85.366H393.587ZM395.403 77.7563C396.603 75.6223 398.298 73.9754 400.508 72.8035L399.571 71.0365C397.029 72.3846 395.051 74.3017 393.66 76.7757L395.403 77.7563ZM400.502 72.8063C402.751 71.6316 405.36 71.03 408.355 71.03V69.03C405.087 69.03 402.151 69.6884 399.576 71.0336L400.502 72.8063ZM412.918 82.4007C413.002 80.9648 412.641 79.6869 411.758 78.6644L410.245 79.9716C410.729 80.5331 410.981 81.2712 410.921 82.2833L412.918 82.4007ZM411.775 78.6848C410.933 77.6552 409.8 77.13 408.463 77.13V79.13C409.214 79.13 409.774 79.3968 410.227 79.9512L411.775 78.6848ZM408.463 77.13C407.169 77.13 406.055 77.6303 405.184 78.5931L406.667 79.9349C407.164 79.3857 407.742 79.13 408.463 79.13V77.13ZM405.166 78.6132C404.375 79.5367 403.868 80.7388 403.594 82.1511L405.557 82.5329C405.786 81.3532 406.18 80.5033 406.685 79.9148L405.166 78.6132ZM404.575 83.342H411.919V81.342H404.575V83.342Z" fill="#3295F0" mask="url(#path-9-outside-2_14_3555)"/>
</g>
</g>
<g filter="url(#filter2_f_14_3555)">
<ellipse cx="19.674" cy="5.82748" rx="19.674" ry="5.82748" transform="matrix(0.995462 -0.0951557 0.191295 0.981533 46.5999 14.5754)" fill="#3C82C9"/>
</g>
<g filter="url(#filter3_f_14_3555)">
<ellipse cx="19.674" cy="5.82748" rx="19.674" ry="5.82748" transform="matrix(0.995462 -0.0951557 0.191295 0.981533 40.8303 15.0442)" fill="#3C82C9"/>
</g>
<g filter="url(#filter4_f_14_3555)">
<ellipse cx="19.674" cy="5.82748" rx="19.674" ry="5.82748" transform="matrix(0.995462 -0.0951557 0.191295 0.981533 46.1411 19.019)" fill="#3C82C9"/>
</g>
<g filter="url(#filter5_f_14_3555)">
<path d="M290.316 142.917H402.273" stroke="#469FF2" stroke-width="0.6" stroke-linecap="round" stroke-linejoin="round"/>
</g>
<defs>
<filter id="filter0_d_14_3555" x="0" y="10.4167" width="472" height="158.583" filterUnits="userSpaceOnUse" color-interpolation-filters="sRGB">
<feFlood flood-opacity="0" result="BackgroundImageFix"/>
<feColorMatrix in="SourceAlpha" type="matrix" values="0 0 0 0 0 0 0 0 0 0 0 0 0 0 0 0 0 0 127 0" result="hardAlpha"/>
<feOffset dy="3"/>
<feGaussianBlur stdDeviation="0.5"/>
<feColorMatrix type="matrix" values="0 0 0 0 0.996078 0 0 0 0 0.996078 0 0 0 0 0.996078 0 0 0 1 0"/>
<feBlend mode="normal" in2="BackgroundImageFix" result="effect1_dropShadow_14_3555"/>
<feBlend mode="normal" in="SourceGraphic" in2="effect1_dropShadow_14_3555" result="shape"/>
</filter>
<filter id="filter1_d_14_3555" x="48.7" y="55.8821" width="376.423" height="46.658" filterUnits="userSpaceOnUse" color-interpolation-filters="sRGB">
<feFlood flood-opacity="0" result="BackgroundImageFix"/>
<feColorMatrix in="SourceAlpha" type="matrix" values="0 0 0 0 0 0 0 0 0 0 0 0 0 0 0 0 0 0 127 0" result="hardAlpha"/>
<feOffset dy="1"/>
<feGaussianBlur stdDeviation="0.5"/>
<feColorMatrix type="matrix" values="0 0 0 0 0.27451 0 0 0 0 0.623529 0 0 0 0 0.94902 0 0 0 1 0"/>
<feBlend mode="normal" in2="BackgroundImageFix" result="effect1_dropShadow_14_3555"/>
<feBlend mode="normal" in="SourceGraphic" in2="effect1_dropShadow_14_3555" result="shape"/>
</filter>
<filter id="filter2_f_14_3555" x="35.6824" y="0.403076" width="63.234" height="36.0403" filterUnits="userSpaceOnUse" color-interpolation-filters="sRGB">
<feFlood flood-opacity="0" result="BackgroundImageFix"/>
<feBlend mode="normal" in="SourceGraphic" in2="BackgroundImageFix" result="shape"/>
<feGaussianBlur stdDeviation="6" result="effect1_foregroundBlur_14_3555"/>
</filter>
<filter id="filter3_f_14_3555" x="29.9128" y="0.871826" width="63.234" height="36.0403" filterUnits="userSpaceOnUse" color-interpolation-filters="sRGB">
<feFlood flood-opacity="0" result="BackgroundImageFix"/>
<feBlend mode="normal" in="SourceGraphic" in2="BackgroundImageFix" result="shape"/>
<feGaussianBlur stdDeviation="6" result="effect1_foregroundBlur_14_3555"/>
</filter>
<filter id="filter4_f_14_3555" x="35.2236" y="4.84668" width="63.234" height="36.0403" filterUnits="userSpaceOnUse" color-interpolation-filters="sRGB">
<feFlood flood-opacity="0" result="BackgroundImageFix"/>
<feBlend mode="normal" in="SourceGraphic" in2="BackgroundImageFix" result="shape"/>
<feGaussianBlur stdDeviation="6" result="effect1_foregroundBlur_14_3555"/>
</filter>
<filter id="filter5_f_14_3555" x="289.016" y="141.617" width="114.558" height="2.6001" filterUnits="userSpaceOnUse" color-interpolation-filters="sRGB">
<feFlood flood-opacity="0" result="BackgroundImageFix"/>
<feBlend mode="normal" in="SourceGraphic" in2="BackgroundImageFix" result="shape"/>
<feGaussianBlur stdDeviation="0.5" result="effect1_foregroundBlur_14_3555"/>
</filter>
<linearGradient id="paint0_linear_14_3555" x1="437.429" y1="146.229" x2="39.7378" y2="147.739" gradientUnits="userSpaceOnUse">
<stop stop-color="#27426F"/>
<stop offset="0.514303" stop-color="#469FF2"/>
<stop offset="1" stop-color="#27426F"/>
</linearGradient>
<linearGradient id="paint1_linear_14_3555" x1="236" y1="10.4167" x2="236" y2="145.125" gradientUnits="userSpaceOnUse">
<stop stop-color="#3295F0"/>
<stop offset="1" stop-color="#3C87F0"/>
</linearGradient>
<linearGradient id="paint2_linear_14_3555" x1="230.835" y1="66.7293" x2="234.613" y2="206.996" gradientUnits="userSpaceOnUse">
<stop stop-color="#2579CD"/>
<stop offset="1" stop-color="#6EABE3" stop-opacity="0.5"/>
</linearGradient>
<linearGradient id="paint3_linear_14_3555" x1="281.192" y1="123.042" x2="247.691" y2="-47.0937" gradientUnits="userSpaceOnUse">
<stop stop-color="#3295F0"/>
<stop offset="1" stop-color="#55A7F3"/>
</linearGradient>
<linearGradient id="paint4_linear_14_3555" x1="266.989" y1="119.729" x2="269.827" y2="159.553" gradientUnits="userSpaceOnUse">
<stop stop-color="#AACAEC"/>
<stop offset="1" stop-color="#2785E2"/>
</linearGradient>
</defs>
</svg>
